{
  "accessors": [
    {
      "bufferView": 2,
      "componentType": 5126,
      "count": 17257,
      "max": [
        6.369311332702637,
        5.537977695465088,
        4.278591156005859
      ],
      "min": [
        -6.374890327453613,
        -5.645562648773193,
        -2.6973960399627686
      ],
      "type": "VEC3"
    },
    {
      "bufferView": 2,
      "byteOffset": 207084,
      "componentType": 5126,
      "count": 17257,
      "max": [
        0.9999995827674866,
        1.0,
        1.0
      ],
      "min": [
        -0.9999995827674866,
        -1.0,
        -1.0
      ],
      "type": "VEC3"
    },
    {
      "bufferView": 3,
      "componentType": 5126,
      "count": 17257,
      "max": [
        1.0,
        0.9999882578849792,
        0.9999887347221375,
        1.0
      ],
      "min": [
        -0.9999967813491821,
        -1.0,
        -0.9999509453773499,
        -1.0
      ],
      "type": "VEC4"
    },
    {
      "bufferView": 1,
      "componentType": 5126,
      "count": 17257,
      "max": [
        0.9972714185714722,
        0.9882546067237854
      ],
      "min": [
        0.0033920519053936005,
        0.005493003875017166
      ],
      "type": "VEC2"
    },
    {
      "bufferView": 1,
      "byteOffset": 138056,
      "componentType": 5126,
      "count": 17257,
      "max": [
        1.1081221103668213,
        1.0295406579971313
      ],
      "min": [
        -0.11898863315582275,
        -0.01204746961593628
      ],
      "type": "VEC2"
    },
    {
      "bufferView": 1,
      "byteOffset": 276112,
      "componentType": 5126,
      "count": 17257,
      "max": [
        0.9972714185714722,
        0.9882546067237854
      ],
      "min": [
        0.0033920519053936005,
        0.005493003875017166
      ],
      "type": "VEC2"
    },
    {
      "bufferView": 1,
      "byteOffset": 414168,
      "componentType": 5126,
      "count": 17257,
      "max": [
        0.9972714185714722,
        0.9882546067237854
      ],
      "min": [
        0.0033920519053936005,
        0.005493003875017166
      ],
      "type": "VEC2"
    },
    {
      "bufferView": 1,
      "byteOffset": 552224,
      "componentType": 5126,
      "count": 17257,
      "max": [
        0.9972714185714722,
        0.9882546067237854
      ],
      "min": [
        0.0033920519053936005,
        0.005493003875017166
      ],
      "type": "VEC2"
    },
    {
      "bufferView": 0,
      "componentType": 5125,
      "count": 74958,
      "type": "SCALAR"
    }
  ],
  "asset": {
    "extras": {
      "author": "leomarques1905 (https://sketchfab.com/leomarques1905)",
      "license": "CC-BY-4.0 (http://creativecommons.org/licenses/by/4.0/)",
      "source": "https://sketchfab.com/3d-models/caneta-azul-0c853169345c4b2885dd57ea97f1c0cc",
      "title": "Caneta Azul"
    },
    "generator": "Sketchfab-15.13.0",
    "version": "2.0"
  },
  "bufferViews": [
    {
      "buffer": 0,
      "byteLength": 299832,
      "name": "floatBufferViews",
      "target": 34963
    },
    {
      "buffer": 0,
      "byteLength": 690280,
      "byteOffset": 299832,
      "byteStride": 8,
      "name": "floatBufferViews",
      "target": 34962
    },
    {
      "buffer": 0,
      "byteLength": 414168,
      "byteOffset": 990112,
      "byteStride": 12,
      "name": "floatBufferViews",
      "target": 34962
    },
    {
      "buffer": 0,
      "byteLength": 276112,
      "byteOffset": 1404280,
      "byteStride": 16,
      "name": "floatBufferViews",
      "target": 34962
    }
  ],
  "buffers": [
    {
      "byteLength": 1680392,
      "uri": "scene.bin"
    }
  ],
  "images": [
    {
      "uri": "textures/MaterialCanetaAzul.001_baseColor.png"
    },
    {
      "uri": "textures/MaterialCanetaAzul.001_metallicRoughness.png"
    },
    {
      "uri": "textures/MaterialCanetaAzul.001_emissive.png"
    },
    {
      "uri": "textures/MaterialCanetaAzul.001_normal.png"
    }
  ],
  "materials": [
    {
      "doubleSided": true,
      "emissiveFactor": [
        1.0,
        1.0,
        1.0
      ],
      "emissiveTexture": {
        "index": 2
      },
      "name": "MaterialCanetaAzul.001",
      "normalTexture": {
        "index": 3
      },
      "pbrMetallicRoughness": {
        "baseColorTexture": {
          "index": 0
        },
        "metallicRoughnessTexture": {
          "index": 1
        }
      }
    }
  ],
  "meshes": [
    {
      "name": "UVCorrigida_MaterialCanetaAzul.001_0",
      "primitives": [
        {
          "attributes": {
            "NORMAL": 1,
            "POSITION": 0,
            "TANGENT": 2,
            "TEXCOORD_0": 3,
            "TEXCOORD_1": 4,
            "TEXCOORD_2": 5,
            "TEXCOORD_3": 6,
            "TEXCOORD_4": 7
          },
          "indices": 8,
          "material": 0,
          "mode": 4
        }
      ]
    }
  ],
  "nodes": [
    {
      "children": [
        1
      ],
      "matrix": [
        1.0,
        0.0,
        0.0,
        0.0,
        0.0,
        2.220446049250313e-16,
        -1.0,
        0.0,
        0.0,
        1.0,
        2.220446049250313e-16,
        0.0,
        0.0,
        0.0,
        0.0,
        1.0
      ],
      "name": "Sketchfab_model"
    },
    {
      "children": [
        2
      ],
      "matrix": [
        0.009999999776482582,
        0.0,
        0.0,
        0.0,
        0.0,
        0.0,
        0.009999999776482582,
        0.0,
        0.0,
        -0.009999999776482582,
        0.0,
        0.0,
        0.0,
        0.0,
        0.0,
        1.0
      ],
      "name": "9a701662dd20447da3f0281aed41c1ad.fbx"
    },
    {
      "children": [
        3
      ],
      "name": "RootNode"
    },
    {
      "children": [
        4
      ],
      "matrix": [
        9.672297477722168,
        0.0,
        0.0,
        0.0,
        0.0,
        9.672297477721784,
        2.728845315588696e-06,
        0.0,
        0.0,
        -2.728845315588696e-06,
        9.672297477721784,
        0.0,
        -8.148399353027344,
        -11.558676719665527,
        -3.765388250350952,
        1.0
      ],
      "name": "UVCorrigida"
    },
    {
      "mesh": 0,
      "name": "UVCorrigida_MaterialCanetaAzul.001_0"
    }
  ],
  "samplers": [
    {
      "magFilter": 9729,
      "minFilter": 9987,
      "wrapS": 10497,
      "wrapT": 10497
    }
  ],
  "scene": 0,
  "scenes": [
    {
      "name": "Sketchfab_Scene",
      "nodes": [
        0
      ]
    }
  ],
  "textures": [
    {
      "sampler": 0,
      "source": 0
    },
    {
      "sampler": 0,
      "source": 1
    },
    {
      "sampler": 0,
      "source": 2
    },
    {
      "sampler": 0,
      "source": 3
    }
  ]
}
